v -0.59119 0.739758 -0.675609
v -0.733708 0.753358 -0.531002
v -0.613852 0.506353 0.053107
v 0.32188 0.236632 0.232449
v -0.305963 0.171522 0.111922
v 0.246665 0.124609 0.448233
v -0.873233 0.403492 0.374129
v -0.761963 0.177828 0.680876
v -0.562516 0.531187 0.367227
v 0.275973 -0.510433 0.686344
v -0.086957 -0.226999 0.674457
v -0.326108 0.087352 0.343619
v 0.847356 -0.671364 -0.029567
v 0.759069 -0.388663 0.044215
v 0.802544 -0.62528 0.379072
v -0.04348 -0.704178 0.591945
v 0.376342 -0.897789 0.472215
v -0.233038 -0.208097 0.521603
v -0.747433 -0.285599 0.505507
v -0.203951 -0.625342 0.448701
v -0.435481 -0.905056 0.439065
v -0.417271 -0.628335 0.360382
v -0.70232 -0.050322 0.462497
v 0.638676 -0.604554 0.385886
v 0.542044 -0.891531 0.263767
v -0.939707 0.051524 0.51163
v -0.925504 0.096686 0.040107
v 0.201068 0.174229 -0.127825
v 0.516448 0.09236 -0.026034
v -0.341934 -0.890632 -0.345768
v -0.705349 -0.920624 -0.058476
v -0.282389 -0.694124 -0.125739
v 0.666075 -0.13091 0.353566
v 0.036367 0.616609 -0.17645
v -0.003778 0.841721 -0.317179
v -0.44186 0.506952 0.139294
v -0.148611 -0.901495 0.644548
v 0.422921 -0.206946 -0.295346
v 0.414692 -0.912902 -0.007099
v -0.432526 0.379488 0.010753
v -0.131532 0.86175 -0.108644
v -0.6076 0.350633 -0.107384
v -0.762706 0.463577 -0.033866
v 0.34284 -0.904459 -0.230166
v 0.520906 -0.583596 -0.262305
v -0.522532 -0.654053 0.018296
v -0.610071 -0.913905 0.246509
v -0.622226 0.516861 -0.665538
v -0.732598 -0.340834 -0.192824
v -0.344142 -0.35619 -0.25861
v -0.118255 -0.389531 -0.500596
v -0.118676 -0.751513 -0.333591
v -0.893256 -0.119139 0.147305
v -0.782669 -0.522354 0.168517
v -0.34152 -0.124505 -0.285833
v -0.467591 0.11434 -0.122819
v 0.008759 -0.863834 0.080429
v -0.332839 -0.920787 0.078783
v 0.063188 -0.848954 0.44519
vn 0.9563225376985552 0.29223278372400807 -0.006870517208518571
vn -0.8302930914185129 0.5570420352562008 0.01782002526144445
vn -0.040131002691142656 0.9779879199493083 -0.20476603980208372
vn 0.25024806271899647 0.9586020336923013 0.1358603993309796
vn 0.2182980799606653 0.9739477430863075 0.06141450987002217
vn 0.09919842929227793 0.6296613928540379 0.7705103516339401
vn -0.7925367678188715 0.5809345070075251 0.1854739071221061
vn 0.16986903720641303 0.16574105845568252 0.9714290564629804
vn 0.425794705758666 0.7634249612052635 0.48567602077581834
vn 0.342944998981943 0.031294622671407486 0.9388340504397619
vn -0.17499058852768157 0.22737142280768624 0.9579564343001953
vn 0.34128113695244366 0.4551962464623372 0.8223889364327847
vn 0.7830524216172174 -0.5033833394578683 -0.3652863514500043
vn 0.904757106030875 0.3328897727881168 -0.26570468241962125
vn 0.868842157064623 -0.17233187173885342 0.4641282496145612
vn -0.30429063662525496 -0.09347984635074805 0.9479813958029123
vn 0.2555532378028327 -0.7442102186402663 0.6171253463599563
vn -0.2562004665827868 0.23338830686632006 0.9380251697800196
vn -0.4799639904184271 -0.29280478296294465 0.8269824224103212
vn -0.31843154780645255 -0.125744062134667 0.9395689331813073
vn -0.23344417323755703 -0.8329574713905092 0.5016828368961432
vn -0.6600441668410649 -0.38860901775944884 0.6429033590946003
vn -0.3110169921292529 -0.20639167817700912 0.9277235071863545
vn 0.6857804647921238 -0.08165717381366132 0.723213149821174
vn 0.35311815677883035 -0.9191725075432293 0.17444044465035474
vn -0.9170113149720204 -0.2925716215178085 0.2710942538965481
vn -0.8036971894546909 0.07713677666264267 -0.5900175805420785
vn 0.05697694467721898 0.7759632194935678 -0.6281995779753645
vn 0.723420171193849 0.5996373062831807 -0.3421963717272776
vn -0.11748100328717555 -0.8966642071027308 -0.42683897850064034
vn -0.7776259991960792 -0.29661019334541777 -0.5543646801320348
vn -0.6635940718791777 0.14573778578231045 -0.7337597737421165
vn 0.7522168027462571 0.3712164220764642 0.5443971433126251
vn 0.7896221770130963 -0.4060690668487041 0.4600051418383504
vn -0.08714096643439043 0.0826303021545669 -0.9927631566162824
vn 0.5124687507312179 0.2589047819615157 0.8187454387057341
vn -0.021897511190873943 -0.7196313315396532 0.6940109838252643
vn 0.3662021604227275 0.3770900244427358 -0.8507050553320484
vn 0.3134723437587314 -0.9087993891176852 -0.27535206561369746
vn 0.5594473570285191 -0.19160705249830493 -0.8064151487582041
vn -0.21922742746287302 0.875118514758586 0.4314011128575553
vn 0.48920781698130583 -0.21090220037179414 -0.8462836248461392
vn -0.9300449616426905 0.29300236579872 -0.2217340365379193
vn 0.19587044397188488 -0.7200652617605491 -0.6656882062827677
vn 0.504943548821242 -0.15364348220503055 -0.8493678195456443
vn -0.7934476292606696 -0.35429323392351203 -0.49489106277709505
vn -0.8844412586162049 -0.24399603730198957 0.3977808364392499
vn -0.6065054171017893 -0.6585393527520612 -0.44550768781591293
vn -0.6117067045007005 -0.2597972003615894 -0.7472083527057047
vn -0.4586421335578219 -0.38272763659474585 -0.8019769008594506
vn -0.04730161807611536 -0.053472699698047556 -0.9974483582193033
vn -0.22492692334700648 -0.19459179973931814 -0.954747040125217
vn -0.9850425274957104 -0.1350468487447499 0.10702134211910698
vn -0.7765429301802598 -0.6232516113893953 0.09240403934665578
vn -0.1567883574104042 0.4165587938154323 -0.8954865617504147
vn -0.03919155218232884 0.5552736612413545 -0.8307437531327946
vn 0.008651290498073302 -0.999310954887723 0.03609391380974256
vn 0.07862133630765449 -0.9968753332631325 -0.007632523089863965
vn 0.011522041682623501 -0.9979211925707573 -0.06340769648569342
f 1//1 2//2 3//3
f 4//4 5//5 6//6
f 7//7 8//8 9//9
f 10//10 6//6 11//11
f 5//5 12//12 6//6
f 13//13 14//14 15//15
f 16//16 17//17 10//10
f 18//18 19//19 20//20
f 21//21 20//20 22//22
f 18//18 23//23 19//19
f 15//15 24//24 25//25
f 18//18 12//12 23//23
f 6//6 12//12 18//18
f 26//26 7//7 27//27
f 16//16 11//11 18//18
f 28//28 4//4 29//29
f 16//16 10//10 11//11
f 30//30 31//31 32//32
f 12//12 9//9 8//8
f 12//12 8//8 23//23
f 33//33 6//6 10//10
f 34//34 35//35 36//36
f 37//37 16//16 21//21
f 24//24 33//33 10//10
f 38//38 29//29 14//14
f 13//13 25//25 39//39
f 24//24 10//10 17//17
f 37//37 17//17 16//16
f 40//40 34//34 36//36
f 35//35 41//41 36//36
f 1//1 3//3 42//42
f 7//7 43//43 27//27
f 44//44 45//45 39//39
f 17//17 25//25 24//24
f 46//46 47//47 22//22
f 14//14 33//33 24//24
f 48//48 1//1 42//42
f 40//40 9//9 5//5
f 9//9 40//40 36//36
f 25//25 13//13 15//15
f 14//14 24//24 15//15
f 43//43 9//9 3//3
f 3//3 9//9 36//36
f 2//2 43//43 3//3
f 14//14 29//29 33//33
f 43//43 7//7 9//9
f 4//4 6//6 33//33
f 29//29 4//4 33//33
f 5//5 9//9 12//12
f 20//20 21//21 16//16
f 46//46 49//49 50//50
f 22//22 47//47 21//21
f 11//11 6//6 18//18
f 47//47 46//46 31//31
f 42//42 27//27 43//43
f 3//3 36//36 41//41
f 8//8 7//7 26//26
f 48//48 2//2 1//1
f 43//43 2//2 48//48
f 32//32 51//51 52//52
f 30//30 32//32 52//52
f 32//32 50//50 51//51
f 19//19 53//53 54//54
f 41//41 35//35 3//3
f 19//19 23//23 53//53
f 46//46 54//54 49//49
f 46//46 32//32 31//31
f 54//54 53//53 49//49
f 53//53 27//27 49//49
f 50//50 55//55 51//51
f 18//18 20//20 16//16
f 55//55 38//38 51//51
f 3//3 40//40 42//42
f 5//5 28//28 56//56
f 56//56 28//28 55//55
f 40//40 56//56 42//42
f 45//45 38//38 14//14
f 4//4 28//28 5//5
f 29//29 38//38 28//28
f 55//55 27//27 56//56
f 13//13 45//45 14//14
f 27//27 42//42 56//56
f 13//13 39//39 45//45
f 34//34 40//40 35//35
f 44//44 51//51 45//45
f 42//42 43//43 48//48
f 53//53 23//23 27//27
f 51//51 38//38 45//45
f 44//44 52//52 51//51
f 40//40 3//3 35//35
f 44//44 30//30 52//52
f 49//49 55//55 50//50
f 55//55 28//28 38//38
f 49//49 27//27 55//55
f 32//32 46//46 50//50
f 40//40 5//5 56//56
f 23//23 26//26 27//27
f 39//39 57//57 44//44
f 23//23 8//8 26//26
f 59//59 21//21 57//57
f 57//57 17//17 59//59
f 46//46 22//22 54//54
f 22//22 19//19 54//54
f 30//30 58//58 31//31
f 47//47 31//31 58//58
f 22//22 20//20 19//19
f 44//44 57//57 30//30
f 58//58 30//30 57//57
f 57//57 39//39 25//25
f 57//57 25//25 17//17
f 59//59 37//37 21//21
f 59//59 17//17 37//37
f 57//57 21//21 58//58
f 47//47 58//58 21//21
