v 0.0 1.0 0.0
v 0.0 -1.0 0.0
v 1.0 1.0 0.0
v 1.0 -1.0 0.0
v 0.9807852804032304 1.0 0.19509032201612825
v 0.9807852804032304 -1.0 0.19509032201612825
v 0.9238795325112867 1.0 0.3826834323650898
v 0.9238795325112867 -1.0 0.3826834323650898
v 0.8314696123025452 1.0 0.5555702330196022
v 0.8314696123025452 -1.0 0.5555702330196022
v 0.7071067811865476 1.0 0.7071067811865475
v 0.7071067811865476 -1.0 0.7071067811865475
v 0.5555702330196023 1.0 0.8314696123025452
v 0.5555702330196023 -1.0 0.8314696123025452
v 0.38268343236508984 1.0 0.9238795325112867
v 0.38268343236508984 -1.0 0.9238795325112867
v 0.19509032201612833 1.0 0.9807852804032304
v 0.19509032201612833 -1.0 0.9807852804032304
v 6.123233995736766e-17 1.0 1.0
v 6.123233995736766e-17 -1.0 1.0
v -0.1950903220161282 1.0 0.9807852804032304
v -0.1950903220161282 -1.0 0.9807852804032304
v -0.3826834323650897 1.0 0.9238795325112867
v -0.3826834323650897 -1.0 0.9238795325112867
v -0.5555702330196023 1.0 0.8314696123025451
v -0.5555702330196023 -1.0 0.8314696123025451
v -0.7071067811865475 1.0 0.7071067811865476
v -0.7071067811865475 -1.0 0.7071067811865476
v -0.8314696123025453 1.0 0.5555702330196022
v -0.8314696123025453 -1.0 0.5555702330196022
v -0.9238795325112867 1.0 0.3826834323650899
v -0.9238795325112867 -1.0 0.3826834323650899
v -0.9807852804032304 1.0 0.19509032201612816
v -0.9807852804032304 -1.0 0.19509032201612816
v -1.0 1.0 1.2246467991473532e-16
v -1.0 -1.0 1.2246467991473532e-16
v -0.9807852804032304 1.0 -0.19509032201612836
v -0.9807852804032304 -1.0 -0.19509032201612836
v -0.9238795325112868 1.0 -0.38268343236508967
v -0.9238795325112868 -1.0 -0.38268343236508967
v -0.8314696123025452 1.0 -0.5555702330196023
v -0.8314696123025452 -1.0 -0.5555702330196023
v -0.7071067811865477 1.0 -0.7071067811865475
v -0.7071067811865477 -1.0 -0.7071067811865475
v -0.5555702330196022 1.0 -0.8314696123025452
v -0.5555702330196022 -1.0 -0.8314696123025452
v -0.3826834323650895 1.0 -0.9238795325112868
v -0.3826834323650895 -1.0 -0.9238795325112868
v -0.19509032201612866 1.0 -0.9807852804032303
v -0.19509032201612866 -1.0 -0.9807852804032303
v -1.8369701987210297e-16 1.0 -1.0
v -1.8369701987210297e-16 -1.0 -1.0
v 0.1950903220161283 1.0 -0.9807852804032304
v 0.1950903220161283 -1.0 -0.9807852804032304
v 0.38268343236509 1.0 -0.9238795325112866
v 0.38268343236509 -1.0 -0.9238795325112866
v 0.5555702330196018 1.0 -0.8314696123025455
v 0.5555702330196018 -1.0 -0.8314696123025455
v 0.7071067811865474 1.0 -0.7071067811865477
v 0.7071067811865474 -1.0 -0.7071067811865477
v 0.8314696123025452 1.0 -0.5555702330196022
v 0.8314696123025452 -1.0 -0.5555702330196022
v 0.9238795325112868 1.0 -0.38268343236508956
v 0.9238795325112868 -1.0 -0.38268343236508956
v 0.9807852804032303 1.0 -0.19509032201612872
v 0.9807852804032303 -1.0 -0.19509032201612872
v 1.0 1.0 -2.4492935982947064e-16
v 1.0 -1.0 -2.4492935982947064e-16
vt 0.75 0.75
vt 0.25 0.75
vt 1.0 0.75
vt 0.5 0.75
vt 1.0 0.5
vt 1.0 0.0
vt 0.9951963201008076 0.7987725805040321
vt 0.4951963201008076 0.7987725805040321
vt 0.96875 0.5
vt 0.96875 0.0
vt 0.9809698831278217 0.8456708580912724
vt 0.4809698831278217 0.8456708580912724
vt 0.9375 0.5
vt 0.9375 0.0
vt 0.9578674030756363 0.8888925582549005
vt 0.45786740307563634 0.8888925582549005
vt 0.90625 0.5
vt 0.90625 0.0
vt 0.9267766952966369 0.9267766952966369
vt 0.42677669529663687 0.9267766952966369
vt 0.875 0.5
vt 0.875 0.0
vt 0.8888925582549005 0.9578674030756363
vt 0.38889255825490054 0.9578674030756363
vt 0.84375 0.5
vt 0.84375 0.0
vt 0.8456708580912724 0.9809698831278217
vt 0.34567085809127246 0.9809698831278217
vt 0.8125 0.5
vt 0.8125 0.0
vt 0.7987725805040321 0.9951963201008076
vt 0.2987725805040321 0.9951963201008076
vt 0.78125 0.5
vt 0.78125 0.0
vt 0.75 1.0
vt 0.25 1.0
vt 0.75 0.5
vt 0.75 0.0
vt 0.701227419495968 0.9951963201008076
vt 0.20122741949596795 0.9951963201008076
vt 0.71875 0.5
vt 0.71875 0.0
vt 0.6543291419087276 0.9809698831278217
vt 0.15432914190872757 0.9809698831278217
vt 0.6875 0.5
vt 0.6875 0.0
vt 0.6111074417450995 0.9578674030756362
vt 0.11110744174509943 0.9578674030756362
vt 0.65625 0.5
vt 0.65625 0.0
vt 0.5732233047033631 0.9267766952966369
vt 0.07322330470336313 0.9267766952966369
vt 0.625 0.5
vt 0.625 0.0
vt 0.5421325969243637 0.8888925582549005
vt 0.04213259692436366 0.8888925582549005
vt 0.59375 0.5
vt 0.59375 0.0
vt 0.5190301168721783 0.8456708580912725
vt 0.019030116872178315 0.8456708580912725
vt 0.5625 0.5
vt 0.5625 0.0
vt 0.5048036798991924 0.798772580504032
vt 0.004803679899192392 0.798772580504032
vt 0.53125 0.5
vt 0.53125 0.0
vt 0.5 0.75
vt 0.0 0.75
vt 0.5 0.5
vt 0.5 0.0
vt 0.5048036798991924 0.7012274194959679
vt 0.004803679899192392 0.7012274194959679
vt 0.46875 0.5
vt 0.46875 0.0
vt 0.5190301168721783 0.6543291419087276
vt 0.019030116872178288 0.6543291419087276
vt 0.4375 0.5
vt 0.4375 0.0
vt 0.5421325969243637 0.6111074417450995
vt 0.04213259692436369 0.6111074417450995
vt 0.40625 0.5
vt 0.40625 0.0
vt 0.573223304703363 0.5732233047033631
vt 0.07322330470336308 0.5732233047033631
vt 0.375 0.5
vt 0.375 0.0
vt 0.6111074417450995 0.5421325969243637
vt 0.11110744174509946 0.5421325969243637
vt 0.34375 0.5
vt 0.34375 0.0
vt 0.6543291419087276 0.5190301168721783
vt 0.15432914190872762 0.5190301168721783
vt 0.3125 0.5
vt 0.3125 0.0
vt 0.7012274194959678 0.5048036798991924
vt 0.20122741949596784 0.5048036798991924
vt 0.28125 0.5
vt 0.28125 0.0
vt 0.75 0.5
vt 0.24999999999999994 0.5
vt 0.25 0.5
vt 0.25 0.0
vt 0.7987725805040321 0.5048036798991924
vt 0.2987725805040321 0.5048036798991924
vt 0.21875 0.5
vt 0.21875 0.0
vt 0.8456708580912725 0.5190301168721784
vt 0.3456708580912725 0.5190301168721784
vt 0.1875 0.5
vt 0.1875 0.0
vt 0.8888925582549004 0.5421325969243637
vt 0.38889255825490043 0.5421325969243637
vt 0.15625 0.5
vt 0.15625 0.0
vt 0.9267766952966369 0.573223304703363
vt 0.42677669529663687 0.573223304703363
vt 0.125 0.5
vt 0.125 0.0
vt 0.9578674030756363 0.6111074417450995
vt 0.45786740307563634 0.6111074417450995
vt 0.09375 0.5
vt 0.09375 0.0
vt 0.9809698831278217 0.6543291419087276
vt 0.48096988312782174 0.6543291419087276
vt 0.0625 0.5
vt 0.0625 0.0
vt 0.9951963201008076 0.7012274194959678
vt 0.4951963201008076 0.7012274194959678
vt 0.03125 0.5
vt 0.03125 0.0
vt 1.0 0.7499999999999999
vt 0.5 0.7499999999999999
vt 0.0 0.5
vt 0.0 0.0
vn 0.0 1.0 0.0
vn 0.0 -1.0 0.0
vn 1.0 0.0 0.0
vn 1.0 0.0 0.0
vn 0.9807852804032304 0.0 0.19509032201612825
vn 0.9807852804032304 0.0 0.19509032201612825
vn 0.9238795325112867 0.0 0.3826834323650898
vn 0.9238795325112867 0.0 0.3826834323650898
vn 0.8314696123025452 0.0 0.5555702330196022
vn 0.8314696123025452 0.0 0.5555702330196022
vn 0.7071067811865476 0.0 0.7071067811865475
vn 0.7071067811865476 0.0 0.7071067811865475
vn 0.5555702330196023 0.0 0.8314696123025452
vn 0.5555702330196023 0.0 0.8314696123025452
vn 0.38268343236508984 0.0 0.9238795325112867
vn 0.38268343236508984 0.0 0.9238795325112867
vn 0.19509032201612833 0.0 0.9807852804032304
vn 0.19509032201612833 0.0 0.9807852804032304
vn 6.123233995736766e-17 0.0 1.0
vn 6.123233995736766e-17 0.0 1.0
vn -0.1950903220161282 0.0 0.9807852804032304
vn -0.1950903220161282 0.0 0.9807852804032304
vn -0.3826834323650897 0.0 0.9238795325112867
vn -0.3826834323650897 0.0 0.9238795325112867
vn -0.5555702330196023 0.0 0.8314696123025451
vn -0.5555702330196023 0.0 0.8314696123025451
vn -0.7071067811865475 0.0 0.7071067811865476
vn -0.7071067811865475 0.0 0.7071067811865476
vn -0.8314696123025453 0.0 0.5555702330196022
vn -0.8314696123025453 0.0 0.5555702330196022
vn -0.9238795325112867 0.0 0.3826834323650899
vn -0.9238795325112867 0.0 0.3826834323650899
vn -0.9807852804032304 0.0 0.19509032201612816
vn -0.9807852804032304 0.0 0.19509032201612816
vn -1.0 0.0 1.2246467991473532e-16
vn -1.0 0.0 1.2246467991473532e-16
vn -0.9807852804032304 0.0 -0.19509032201612836
vn -0.9807852804032304 0.0 -0.19509032201612836
vn -0.9238795325112868 0.0 -0.38268343236508967
vn -0.9238795325112868 0.0 -0.38268343236508967
vn -0.8314696123025452 0.0 -0.5555702330196023
vn -0.8314696123025452 0.0 -0.5555702330196023
vn -0.7071067811865477 0.0 -0.7071067811865475
vn -0.7071067811865477 0.0 -0.7071067811865475
vn -0.5555702330196022 0.0 -0.8314696123025452
vn -0.5555702330196022 0.0 -0.8314696123025452
vn -0.3826834323650895 0.0 -0.9238795325112868
vn -0.3826834323650895 0.0 -0.9238795325112868
vn -0.19509032201612866 0.0 -0.9807852804032303
vn -0.19509032201612866 0.0 -0.9807852804032303
vn -1.8369701987210297e-16 0.0 -1.0
vn -1.8369701987210297e-16 0.0 -1.0
vn 0.1950903220161283 0.0 -0.9807852804032304
vn 0.1950903220161283 0.0 -0.9807852804032304
vn 0.38268343236509 0.0 -0.9238795325112866
vn 0.38268343236509 0.0 -0.9238795325112866
vn 0.5555702330196018 0.0 -0.8314696123025455
vn 0.5555702330196018 0.0 -0.8314696123025455
vn 0.7071067811865474 0.0 -0.7071067811865477
vn 0.7071067811865474 0.0 -0.7071067811865477
vn 0.8314696123025452 0.0 -0.5555702330196022
vn 0.8314696123025452 0.0 -0.5555702330196022
vn 0.9238795325112868 0.0 -0.38268343236508956
vn 0.9238795325112868 0.0 -0.38268343236508956
vn 0.9807852804032303 0.0 -0.19509032201612872
vn 0.9807852804032303 0.0 -0.19509032201612872
vn 1.0 0.0 -2.4492935982947064e-16
vn 1.0 0.0 -2.4492935982947064e-16
f 3/3/1 1/1/1 5/7/1
f 6/4/2 2/2/2 4/8/2
f 3/5/3 5/9/5 4/6/4
f 4/6/4 5/9/5 6/10/6
f 5/7/1 1/1/1 7/11/1
f 8/8/2 2/2/2 6/12/2
f 5/9/5 7/13/7 6/10/6
f 6/10/6 7/13/7 8/14/8
f 7/11/1 1/1/1 9/15/1
f 10/12/2 2/2/2 8/16/2
f 7/13/7 9/17/9 8/14/8
f 8/14/8 9/17/9 10/18/10
f 9/15/1 1/1/1 11/19/1
f 12/16/2 2/2/2 10/20/2
f 9/17/9 11/21/11 10/18/10
f 10/18/10 11/21/11 12/22/12
f 11/19/1 1/1/1 13/23/1
f 14/20/2 2/2/2 12/24/2
f 11/21/11 13/25/13 12/22/12
f 12/22/12 13/25/13 14/26/14
f 13/23/1 1/1/1 15/27/1
f 16/24/2 2/2/2 14/28/2
f 13/25/13 15/29/15 14/26/14
f 14/26/14 15/29/15 16/30/16
f 15/27/1 1/1/1 17/31/1
f 18/28/2 2/2/2 16/32/2
f 15/29/15 17/33/17 16/30/16
f 16/30/16 17/33/17 18/34/18
f 17/31/1 1/1/1 19/35/1
f 20/32/2 2/2/2 18/36/2
f 17/33/17 19/37/19 18/34/18
f 18/34/18 19/37/19 20/38/20
f 19/35/1 1/1/1 21/39/1
f 22/36/2 2/2/2 20/40/2
f 19/37/19 21/41/21 20/38/20
f 20/38/20 21/41/21 22/42/22
f 21/39/1 1/1/1 23/43/1
f 24/40/2 2/2/2 22/44/2
f 21/41/21 23/45/23 22/42/22
f 22/42/22 23/45/23 24/46/24
f 23/43/1 1/1/1 25/47/1
f 26/44/2 2/2/2 24/48/2
f 23/45/23 25/49/25 24/46/24
f 24/46/24 25/49/25 26/50/26
f 25/47/1 1/1/1 27/51/1
f 28/48/2 2/2/2 26/52/2
f 25/49/25 27/53/27 26/50/26
f 26/50/26 27/53/27 28/54/28
f 27/51/1 1/1/1 29/55/1
f 30/52/2 2/2/2 28/56/2
f 27/53/27 29/57/29 28/54/28
f 28/54/28 29/57/29 30/58/30
f 29/55/1 1/1/1 31/59/1
f 32/56/2 2/2/2 30/60/2
f 29/57/29 31/61/31 30/58/30
f 30/58/30 31/61/31 32/62/32
f 31/59/1 1/1/1 33/63/1
f 34/60/2 2/2/2 32/64/2
f 31/61/31 33/65/33 32/62/32
f 32/62/32 33/65/33 34/66/34
f 33/63/1 1/1/1 35/67/1
f 36/64/2 2/2/2 34/68/2
f 33/65/33 35/69/35 34/66/34
f 34/66/34 35/69/35 36/70/36
f 35/67/1 1/1/1 37/71/1
f 38/68/2 2/2/2 36/72/2
f 35/69/35 37/73/37 36/70/36
f 36/70/36 37/73/37 38/74/38
f 37/71/1 1/1/1 39/75/1
f 40/72/2 2/2/2 38/76/2
f 37/73/37 39/77/39 38/74/38
f 38/74/38 39/77/39 40/78/40
f 39/75/1 1/1/1 41/79/1
f 42/76/2 2/2/2 40/80/2
f 39/77/39 41/81/41 40/78/40
f 40/78/40 41/81/41 42/82/42
f 41/79/1 1/1/1 43/83/1
f 44/80/2 2/2/2 42/84/2
f 41/81/41 43/85/43 42/82/42
f 42/82/42 43/85/43 44/86/44
f 43/83/1 1/1/1 45/87/1
f 46/84/2 2/2/2 44/88/2
f 43/85/43 45/89/45 44/86/44
f 44/86/44 45/89/45 46/90/46
f 45/87/1 1/1/1 47/91/1
f 48/88/2 2/2/2 46/92/2
f 45/89/45 47/93/47 46/90/46
f 46/90/46 47/93/47 48/94/48
f 47/91/1 1/1/1 49/95/1
f 50/92/2 2/2/2 48/96/2
f 47/93/47 49/97/49 48/94/48
f 48/94/48 49/97/49 50/98/50
f 49/95/1 1/1/1 51/99/1
f 52/96/2 2/2/2 50/100/2
f 49/97/49 51/101/51 50/98/50
f 50/98/50 51/101/51 52/102/52
f 51/99/1 1/1/1 53/103/1
f 54/100/2 2/2/2 52/104/2
f 51/101/51 53/105/53 52/102/52
f 52/102/52 53/105/53 54/106/54
f 53/103/1 1/1/1 55/107/1
f 56/104/2 2/2/2 54/108/2
f 53/105/53 55/109/55 54/106/54
f 54/106/54 55/109/55 56/110/56
f 55/107/1 1/1/1 57/111/1
f 58/108/2 2/2/2 56/112/2
f 55/109/55 57/113/57 56/110/56
f 56/110/56 57/113/57 58/114/58
f 57/111/1 1/1/1 59/115/1
f 60/112/2 2/2/2 58/116/2
f 57/113/57 59/117/59 58/114/58
f 58/114/58 59/117/59 60/118/60
f 59/115/1 1/1/1 61/119/1
f 62/116/2 2/2/2 60/120/2
f 59/117/59 61/121/61 60/118/60
f 60/118/60 61/121/61 62/122/62
f 61/119/1 1/1/1 63/123/1
f 64/120/2 2/2/2 62/124/2
f 61/121/61 63/125/63 62/122/62
f 62/122/62 63/125/63 64/126/64
f 63/123/1 1/1/1 65/127/1
f 66/124/2 2/2/2 64/128/2
f 63/125/63 65/129/65 64/126/64
f 64/126/64 65/129/65 66/130/66
f 65/127/1 1/1/1 67/131/1
f 68/128/2 2/2/2 66/132/2
f 65/129/65 67/133/67 66/130/66
f 66/130/66 67/133/67 68/134/68
